<svg width="802" height="68" viewBox="0 0 802 68" fill="none" xmlns="http://www.w3.org/2000/svg">
<path d="M72.4 0.999997V67H59.9V32.6L60.6 13.3H60.4L42.1 67H30.8L12.6 13.3H12.4L13.1 32.6V67H0.6V0.999997H20.6L32.5 37L36.7 51.9H36.9L41.2 37.1L53 0.999997H72.4ZM146.865 67H132.565L127.065 50.9H101.765L96.2648 67H82.1648L106.265 0.999997H122.765L146.865 67ZM104.865 40.7H123.965L114.365 11.9L104.865 40.7ZM185.755 0.999997C193.221 0.999997 199.088 2.8 203.355 6.4C207.621 10 209.755 14.8333 209.755 20.9C209.755 27.3667 207.621 32.3333 203.355 35.8C199.088 39.2 193.255 40.9 185.855 40.9L184.455 41.7H170.255V67H156.655V0.999997H185.755ZM184.155 31.2C188.021 31.2 190.888 30.4333 192.755 28.9C194.688 27.3 195.655 24.8667 195.655 21.6C195.655 18.3333 194.688 15.9333 192.755 14.4C190.888 12.8 188.021 12 184.155 12H170.255V31.2H184.155ZM192.255 34.1L213.655 67H198.155L180.455 38.1L192.255 34.1ZM280.538 48.8C279.271 53.0667 277.271 56.6333 274.538 59.5C271.804 62.3667 268.571 64.5 264.838 65.9C261.104 67.3 257.004 68 252.538 68C246.004 68 240.338 66.6333 235.538 63.9C230.804 61.1667 227.138 57.2667 224.538 52.2C222.004 47.1333 220.738 41.0667 220.738 34C220.738 26.9333 222.004 20.8667 224.538 15.8C227.138 10.7333 230.804 6.83333 235.538 4.1C240.338 1.36667 245.938 -1.66893e-06 252.338 -1.66893e-06C256.871 -1.66893e-06 260.971 0.633331 264.638 1.9C268.304 3.1 271.404 4.96666 273.938 7.5C276.538 10.0333 278.438 13.2333 279.638 17.1L267.138 22.4C266.004 18.4 264.271 15.5667 261.938 13.9C259.604 12.1667 256.604 11.3 252.938 11.3C249.338 11.3 246.171 12.1667 243.438 13.9C240.771 15.6333 238.704 18.2 237.238 21.6C235.771 24.9333 235.038 29.0667 235.038 34C235.038 38.8667 235.704 43 237.038 46.4C238.438 49.8 240.471 52.3667 243.138 54.1C245.804 55.8333 249.071 56.7 252.938 56.7C256.538 56.7 259.638 55.7333 262.238 53.8C264.904 51.8667 266.771 48.9333 267.838 45L280.538 48.8ZM320.799 -1.66893e-06C327.333 -1.66893e-06 332.966 1.36667 337.699 4.1C342.433 6.83333 346.066 10.7333 348.599 15.8C351.199 20.8667 352.499 26.9333 352.499 34C352.499 41.0667 351.199 47.1333 348.599 52.2C346.066 57.2667 342.433 61.1667 337.699 63.9C332.966 66.6333 327.333 68 320.799 68C314.266 68 308.599 66.6333 303.799 63.9C299.066 61.1667 295.399 57.2667 292.799 52.2C290.266 47.1333 288.999 41.0667 288.999 34C288.999 26.9333 290.266 20.8667 292.799 15.8C295.399 10.7333 299.066 6.83333 303.799 4.1C308.599 1.36667 314.266 -1.66893e-06 320.799 -1.66893e-06ZM320.799 11.3C317.066 11.3 313.899 12.1667 311.299 13.9C308.699 15.6333 306.699 18.2 305.299 21.6C303.966 24.9333 303.299 29.0667 303.299 34C303.299 38.8667 303.966 43 305.299 46.4C306.699 49.8 308.699 52.3667 311.299 54.1C313.899 55.8333 317.066 56.7 320.799 56.7C324.466 56.7 327.599 55.8333 330.199 54.1C332.799 52.3667 334.766 49.8 336.099 46.4C337.499 43 338.199 38.8667 338.199 34C338.199 29.0667 337.499 24.9333 336.099 21.6C334.766 18.2 332.799 15.6333 330.199 13.9C327.599 12.1667 324.466 11.3 320.799 11.3ZM398.987 60.8L396.487 56H442.687V67H387.787V56.6L430.387 7.2L432.787 12H388.587V0.999997H441.487V11.4L398.987 60.8ZM469.068 0.999997V67H455.268V0.999997H469.068ZM486.225 67V0.999997H535.725V12.1H500.025V28.5H528.125V39.1H500.025V55.9H537.125V67H486.225ZM575.727 68C569.661 68 564.327 66.6667 559.727 64C555.194 61.3333 551.661 57.4667 549.127 52.4C546.594 47.3333 545.327 41.2333 545.327 34.1C545.327 27.0333 546.661 20.9667 549.327 15.9C551.994 10.7667 555.761 6.83333 560.627 4.1C565.561 1.36667 571.261 -1.66893e-06 577.727 -1.66893e-06C584.861 -1.66893e-06 590.627 1.33333 595.027 3.99999C599.427 6.6 602.927 10.6667 605.527 16.2L592.727 21.7C591.661 18.1667 589.827 15.5667 587.227 13.9C584.694 12.1667 581.561 11.3 577.827 11.3C574.094 11.3 570.861 12.2 568.127 14C565.394 15.7333 563.294 18.3 561.827 21.7C560.361 25.0333 559.627 29.1333 559.627 34C559.627 39 560.327 43.2333 561.727 46.7C563.127 50.1 565.194 52.6667 567.927 54.4C570.727 56.0667 574.161 56.9 578.227 56.9C580.427 56.9 582.461 56.6333 584.327 56.1C586.261 55.5667 587.927 54.7667 589.327 53.7C590.727 52.6333 591.827 51.2667 592.627 49.6C593.427 47.9333 593.827 46 593.827 43.8V42.3H576.527V32.2H605.727V67H596.027L595.027 52.6L597.427 54.3C595.961 58.7 593.361 62.1 589.627 64.5C585.961 66.8333 581.327 68 575.727 68ZM634.693 55.9H669.493V67H620.893V0.999997H634.693V55.9ZM680.952 67V0.999997H730.452V12.1H694.752V28.5H722.852V39.1H694.752V55.9H731.852V67H680.952ZM773.333 0.999997C780.799 0.999997 786.666 2.8 790.933 6.4C795.199 10 797.333 14.8333 797.333 20.9C797.333 27.3667 795.199 32.3333 790.933 35.8C786.666 39.2 780.833 40.9 773.433 40.9L772.033 41.7H757.833V67H744.233V0.999997H773.333ZM771.733 31.2C775.599 31.2 778.466 30.4333 780.333 28.9C782.266 27.3 783.233 24.8667 783.233 21.6C783.233 18.3333 782.266 15.9333 780.333 14.4C778.466 12.8 775.599 12 771.733 12H757.833V31.2H771.733ZM779.833 34.1L801.233 67H785.733L768.033 38.1L779.833 34.1Z" fill="#434343"/>
</svg>
