<svg width="810" height="217" viewBox="0 0 810 217" fill="none" xmlns="http://www.w3.org/2000/svg">
<path d="M215.886 69.9336C215.886 38.5056 191.112 13.7766 160.584 13.7766C135.933 13.7766 115.08 30.7596 107.937 53.7066C100.788 30.7626 79.935 14.3676 55.284 14.3676C24.75 14.3676 0 38.3916 0 69.8316C0 85.6956 6.321 96.9036 16.494 108.898L107.988 203.224L199.377 108.898C209.559 96.9036 215.886 85.7856 215.886 69.9336Z" fill="#FA5A00"/>
<path fill-rule="evenodd" clip-rule="evenodd" d="M529.886 108.5C529.886 108.5 473.698 187 404.386 187C335.074 187 278.886 108.5 278.886 108.5C278.886 108.5 335.074 30 404.386 30C473.698 30 529.886 108.5 529.886 108.5ZM461.665 108.5C461.665 140.043 436.021 165.614 404.386 165.614C372.751 165.614 347.107 140.043 347.107 108.5C347.107 76.957 372.751 51.3859 404.386 51.3859C436.021 51.3859 461.665 76.957 461.665 108.5ZM404.386 141.228C422.514 141.228 437.209 126.575 437.209 108.5C437.209 90.425 422.514 75.772 404.386 75.772C386.258 75.772 371.563 90.425 371.563 108.5C371.563 126.575 386.258 141.228 404.386 141.228Z" fill="#0085FF"/>
<path fill-rule="evenodd" clip-rule="evenodd" d="M809.886 36.5C809.886 54.5955 796.718 69.615 779.441 72.5C796.718 75.385 809.886 90.405 809.886 108.5C809.886 126.595 796.718 141.615 779.441 144.5C796.718 147.385 809.886 162.405 809.886 180.5C809.886 200.658 793.544 217 773.386 217C755.291 217 740.271 203.832 737.386 186.555C734.501 203.832 719.481 217 701.386 217C683.291 217 668.271 203.832 665.386 186.555C662.501 203.832 647.481 217 629.386 217C609.228 217 592.886 200.658 592.886 180.5C592.886 162.405 606.054 147.385 623.33 144.5C606.054 141.615 592.886 126.595 592.886 108.5C592.886 90.405 606.054 75.385 623.33 72.5C606.054 69.615 592.886 54.5955 592.886 36.5C592.886 16.3416 609.228 0 629.386 0C647.481 0 662.501 13.1681 665.386 30.4445C668.271 13.1681 683.291 0 701.386 0C719.481 0 734.501 13.1681 737.386 30.4445C740.271 13.1681 755.291 0 773.386 0C793.544 0 809.886 16.3416 809.886 36.5ZM665.386 42.5555C662.83 57.8624 650.748 69.944 635.441 72.5C650.748 75.056 662.83 87.138 665.386 102.445C667.942 87.138 680.024 75.056 695.331 72.5C680.024 69.944 667.942 57.8624 665.386 42.5555ZM707.441 72.5C722.748 69.944 734.83 57.8624 737.386 42.5555C739.942 57.8624 752.024 69.944 767.331 72.5C752.024 75.056 739.942 87.138 737.386 102.445C734.83 87.138 722.748 75.056 707.441 72.5ZM737.386 174.445C739.942 159.138 752.024 147.056 767.331 144.5C752.024 141.944 739.942 129.862 737.386 114.555C734.83 129.862 722.748 141.944 707.441 144.5C722.748 147.056 734.83 159.138 737.386 174.445ZM665.386 114.555C667.942 129.862 680.024 141.944 695.331 144.5C680.024 147.056 667.942 159.138 665.386 174.445C662.83 159.138 650.748 147.056 635.441 144.5C650.748 141.944 662.83 129.862 665.386 114.555Z" fill="#434343"/>
</svg>
