<svg width="1083" height="120" viewBox="0 0 1083 120" fill="none" xmlns="http://www.w3.org/2000/svg">
<path d="M80.4 28V94H67.9V59.6L68.6 40.3H68.4L50.1 94H38.8L20.6 40.3H20.4L21.1 59.6V94H8.6V28H28.6L40.5 64L44.7 78.9H44.9L49.2 64.1L61 28H80.4ZM154.865 94H140.565L135.065 77.9H109.765L104.265 94H90.1648L114.265 28H130.765L154.865 94ZM112.865 67.7H131.965L122.365 38.9L112.865 67.7ZM193.755 28C201.221 28 207.088 29.8 211.355 33.4C215.621 37 217.755 41.8333 217.755 47.9C217.755 54.3667 215.621 59.3333 211.355 62.8C207.088 66.2 201.255 67.9 193.855 67.9L192.455 68.7H178.255V94H164.655V28H193.755ZM192.155 58.2C196.021 58.2 198.888 57.4333 200.755 55.9C202.688 54.3 203.655 51.8667 203.655 48.6C203.655 45.3333 202.688 42.9333 200.755 41.4C198.888 39.8 196.021 39 192.155 39H178.255V58.2H192.155ZM200.255 61.1L221.655 94H206.155L188.455 65.1L200.255 61.1ZM288.538 75.8C287.271 80.0667 285.271 83.6333 282.538 86.5C279.804 89.3667 276.571 91.5 272.838 92.9C269.104 94.3 265.004 95 260.538 95C254.004 95 248.338 93.6333 243.538 90.9C238.804 88.1667 235.138 84.2667 232.538 79.2C230.004 74.1333 228.738 68.0667 228.738 61C228.738 53.9333 230.004 47.8667 232.538 42.8C235.138 37.7333 238.804 33.8333 243.538 31.1C248.338 28.3667 253.938 27 260.338 27C264.871 27 268.971 27.6333 272.638 28.9C276.304 30.1 279.404 31.9667 281.938 34.5C284.538 37.0333 286.438 40.2333 287.638 44.1L275.138 49.4C274.004 45.4 272.271 42.5667 269.938 40.9C267.604 39.1667 264.604 38.3 260.938 38.3C257.338 38.3 254.171 39.1667 251.438 40.9C248.771 42.6333 246.704 45.2 245.238 48.6C243.771 51.9333 243.038 56.0667 243.038 61C243.038 65.8667 243.704 70 245.038 73.4C246.438 76.8 248.471 79.3667 251.138 81.1C253.804 82.8333 257.071 83.7 260.938 83.7C264.538 83.7 267.638 82.7333 270.238 80.8C272.904 78.8667 274.771 75.9333 275.838 72L288.538 75.8ZM328.799 27C335.333 27 340.966 28.3667 345.699 31.1C350.433 33.8333 354.066 37.7333 356.599 42.8C359.199 47.8667 360.499 53.9333 360.499 61C360.499 68.0667 359.199 74.1333 356.599 79.2C354.066 84.2667 350.433 88.1667 345.699 90.9C340.966 93.6333 335.333 95 328.799 95C322.266 95 316.599 93.6333 311.799 90.9C307.066 88.1667 303.399 84.2667 300.799 79.2C298.266 74.1333 296.999 68.0667 296.999 61C296.999 53.9333 298.266 47.8667 300.799 42.8C303.399 37.7333 307.066 33.8333 311.799 31.1C316.599 28.3667 322.266 27 328.799 27ZM328.799 38.3C325.066 38.3 321.899 39.1667 319.299 40.9C316.699 42.6333 314.699 45.2 313.299 48.6C311.966 51.9333 311.299 56.0667 311.299 61C311.299 65.8667 311.966 70 313.299 73.4C314.699 76.8 316.699 79.3667 319.299 81.1C321.899 82.8333 325.066 83.7 328.799 83.7C332.466 83.7 335.599 82.8333 338.199 81.1C340.799 79.3667 342.766 76.8 344.099 73.4C345.499 70 346.199 65.8667 346.199 61C346.199 56.0667 345.499 51.9333 344.099 48.6C342.766 45.2 340.799 42.6333 338.199 40.9C335.599 39.1667 332.466 38.3 328.799 38.3ZM406.987 87.8L404.487 83H450.687V94H395.787V83.6L438.387 34.2L440.787 39H396.587V28H449.487V38.4L406.987 87.8ZM477.068 28V94H463.268V28H477.068ZM494.225 94V28H543.725V39.1H508.025V55.5H536.125V66.1H508.025V82.9H545.125V94H494.225ZM583.727 95C577.661 95 572.327 93.6667 567.727 91C563.194 88.3333 559.661 84.4667 557.127 79.4C554.594 74.3333 553.327 68.2333 553.327 61.1C553.327 54.0333 554.661 47.9667 557.327 42.9C559.994 37.7667 563.761 33.8333 568.627 31.1C573.561 28.3667 579.261 27 585.727 27C592.861 27 598.627 28.3333 603.027 31C607.427 33.6 610.927 37.6667 613.527 43.2L600.727 48.7C599.661 45.1667 597.827 42.5667 595.227 40.9C592.694 39.1667 589.561 38.3 585.827 38.3C582.094 38.3 578.861 39.2 576.127 41C573.394 42.7333 571.294 45.3 569.827 48.7C568.361 52.0333 567.627 56.1333 567.627 61C567.627 66 568.327 70.2333 569.727 73.7C571.127 77.1 573.194 79.6667 575.927 81.4C578.727 83.0667 582.161 83.9 586.227 83.9C588.427 83.9 590.461 83.6333 592.327 83.1C594.261 82.5667 595.927 81.7667 597.327 80.7C598.727 79.6333 599.827 78.2667 600.627 76.6C601.427 74.9333 601.827 73 601.827 70.8V69.3H584.527V59.2H613.727V94H604.027L603.027 79.6L605.427 81.3C603.961 85.7 601.361 89.1 597.627 91.5C593.961 93.8333 589.327 95 583.727 95ZM642.693 82.9H677.493V94H628.893V28H642.693V82.9ZM688.952 94V28H738.452V39.1H702.752V55.5H730.852V66.1H702.752V82.9H739.852V94H688.952ZM781.333 28C788.799 28 794.666 29.8 798.933 33.4C803.199 37 805.333 41.8333 805.333 47.9C805.333 54.3667 803.199 59.3333 798.933 62.8C794.666 66.2 788.833 67.9 781.433 67.9L780.033 68.7H765.833V94H752.233V28H781.333ZM779.733 58.2C783.599 58.2 786.466 57.4333 788.333 55.9C790.266 54.3 791.233 51.8667 791.233 48.6C791.233 45.3333 790.266 42.9333 788.333 41.4C786.466 39.8 783.599 39 779.733 39H765.833V58.2H779.733ZM787.833 61.1L809.233 94H793.733L776.033 65.1L787.833 61.1Z" fill="#434343"/>
<path d="M898.575 48.2855C898.575 38.7394 891.05 31.228 881.777 31.228C874.289 31.228 867.955 36.3866 865.785 43.3566C863.614 36.3875 857.28 31.4075 849.792 31.4075C840.518 31.4075 833 38.7047 833 48.2545C833 53.0732 834.92 56.4776 838.01 60.1207L865.801 88.7719L893.56 60.1207C896.653 56.4776 898.575 53.1005 898.575 48.2855Z" fill="#434343"/>
<path fill-rule="evenodd" clip-rule="evenodd" d="M995.815 59.9999C995.815 59.9999 978.748 83.844 957.695 83.844C936.642 83.844 919.575 59.9999 919.575 59.9999C919.575 59.9999 936.642 36.1558 957.695 36.1558C978.748 36.1558 995.815 59.9999 995.815 59.9999ZM975.093 59.9999C975.093 69.5809 967.304 77.348 957.695 77.348C948.086 77.348 940.296 69.5809 940.296 59.9999C940.296 50.4188 948.086 42.6517 957.695 42.6517C967.304 42.6517 975.093 50.4188 975.093 59.9999ZM957.695 69.9409C963.201 69.9409 967.665 65.4901 967.665 59.9999C967.665 54.5096 963.201 50.0588 957.695 50.0588C952.188 50.0588 947.725 54.5096 947.725 59.9999C947.725 65.4901 952.188 69.9409 957.695 69.9409Z" fill="#434343"/>
<path fill-rule="evenodd" clip-rule="evenodd" d="M1082.73 38.1302C1082.73 43.6266 1078.73 48.1888 1073.48 49.0651C1078.73 49.9414 1082.73 54.5037 1082.73 59.9999C1082.73 65.4962 1078.73 70.0585 1073.48 70.9348C1078.73 71.8111 1082.73 76.3734 1082.73 81.8697C1082.73 87.9926 1077.76 92.9564 1071.64 92.9564C1066.14 92.9564 1061.58 88.9567 1060.71 83.7089C1059.83 88.9567 1055.27 92.9564 1049.77 92.9564C1044.28 92.9564 1039.71 88.9567 1038.84 83.7089C1037.96 88.9567 1033.4 92.9564 1027.9 92.9564C1021.78 92.9564 1016.81 87.9926 1016.81 81.8697C1016.81 76.3734 1020.81 71.8111 1026.06 70.9348C1020.81 70.0585 1016.81 65.4962 1016.81 59.9999C1016.81 54.5037 1020.81 49.9414 1026.06 49.0651C1020.81 48.1888 1016.81 43.6266 1016.81 38.1302C1016.81 32.0072 1021.78 27.0435 1027.9 27.0435C1033.4 27.0435 1037.96 31.0432 1038.84 36.2909C1039.71 31.0432 1044.28 27.0435 1049.77 27.0435C1055.27 27.0435 1059.83 31.0432 1060.71 36.2909C1061.58 31.0432 1066.14 27.0435 1071.64 27.0435C1077.76 27.0435 1082.73 32.0072 1082.73 38.1302ZM1038.84 39.9695C1038.06 44.619 1034.39 48.2887 1029.74 49.0651C1034.39 49.8415 1038.06 53.5113 1038.84 58.1608C1039.61 53.5113 1043.28 49.8415 1047.93 49.0651C1043.28 48.2887 1039.61 44.619 1038.84 39.9695ZM1051.61 49.0651C1056.26 48.2887 1059.93 44.619 1060.71 39.9695C1061.48 44.619 1065.15 48.2887 1069.8 49.0651C1065.15 49.8415 1061.48 53.5113 1060.71 58.1608C1059.93 53.5113 1056.26 49.8415 1051.61 49.0651ZM1060.71 80.0305C1061.48 75.3811 1065.15 71.7112 1069.8 70.9348C1065.15 70.1584 1061.48 66.4886 1060.71 61.8391C1059.93 66.4886 1056.26 70.1584 1051.61 70.9348C1056.26 71.7112 1059.93 75.3811 1060.71 80.0305ZM1038.84 61.8391C1039.61 66.4886 1043.28 70.1584 1047.93 70.9348C1043.28 71.7112 1039.61 75.3811 1038.84 80.0305C1038.06 75.3811 1034.39 71.7112 1029.74 70.9348C1034.39 70.1584 1038.06 66.4886 1038.84 61.8391Z" fill="#434343"/>
</svg>
