<svg width="764" height="121" viewBox="0 0 764 121" fill="none" xmlns="http://www.w3.org/2000/svg">
<path d="M83.7 28.5V94.5H68.5V64.2L69 43.9H68.8L52.5 94.5H38.6L22.3 43.9H22.1L22.6 64.2V94.5H7.3V28.5H31.8L42.2 62.1L45.9 76.1H46.1L49.9 62.2L60.2 28.5H83.7ZM158.316 94.5H140.616L136.016 79.6H113.416L108.716 94.5H91.4156L114.616 28.5H135.216L158.316 94.5ZM116.616 67.9H132.816L124.716 41.2L116.616 67.9ZM197.491 28.5C205.358 28.5 211.458 30.3667 215.791 34.1C220.191 37.7667 222.391 42.6667 222.391 48.8C222.391 55.5333 220.225 60.6667 215.891 64.2C211.558 67.7333 205.458 69.5 197.591 69.5L195.991 70.4H182.891V94.5H165.991V28.5H197.491ZM195.091 58.2C198.425 58.2 200.925 57.5333 202.591 56.2C204.258 54.8667 205.091 52.7333 205.091 49.8C205.091 46.9333 204.258 44.8333 202.591 43.5C200.925 42.1667 198.425 41.5 195.091 41.5H182.891V58.2H195.091ZM205.191 61.8L226.291 94.5H207.291L190.391 65.6L205.191 61.8ZM292.753 75.6C291.486 80.2 289.453 84 286.653 87C283.853 89.9333 280.52 92.1 276.653 93.5C272.786 94.8333 268.52 95.5 263.853 95.5C257.186 95.5 251.42 94.1667 246.553 91.5C241.686 88.7667 237.953 84.8667 235.353 79.8C232.753 74.7333 231.453 68.6333 231.453 61.5C231.453 54.3667 232.753 48.2667 235.353 43.2C237.953 38.1333 241.686 34.2667 246.553 31.6C251.42 28.8667 257.153 27.5 263.753 27.5C268.353 27.5 272.586 28.1667 276.453 29.5C280.32 30.7667 283.586 32.7333 286.253 35.4C288.92 38.0667 290.82 41.5 291.953 45.7L276.853 51.8C275.92 47.6667 274.386 44.8333 272.253 43.3C270.186 41.7667 267.553 41 264.353 41C261.22 41 258.486 41.7667 256.153 43.3C253.886 44.8333 252.12 47.1333 250.853 50.2C249.653 53.2 249.053 56.9667 249.053 61.5C249.053 65.9667 249.62 69.7333 250.753 72.8C251.886 75.8667 253.586 78.1667 255.853 79.7C258.186 81.2333 261.053 82 264.453 82C267.653 82 270.353 81.1333 272.553 79.4C274.82 77.6 276.353 74.8667 277.153 71.2L292.753 75.6ZM331.92 27.5C338.586 27.5 344.32 28.8667 349.12 31.6C353.986 34.2667 357.72 38.1333 360.32 43.2C362.92 48.2667 364.22 54.3667 364.22 61.5C364.22 68.6333 362.92 74.7333 360.32 79.8C357.72 84.8667 353.986 88.7667 349.12 91.5C344.32 94.1667 338.586 95.5 331.92 95.5C325.253 95.5 319.486 94.1667 314.62 91.5C309.753 88.7667 306.02 84.8667 303.42 79.8C300.82 74.7333 299.52 68.6333 299.52 61.5C299.52 54.3667 300.82 48.2667 303.42 43.2C306.02 38.1333 309.753 34.2667 314.62 31.6C319.486 28.8667 325.253 27.5 331.92 27.5ZM331.92 41C328.72 41 326.02 41.7667 323.82 43.3C321.62 44.8333 319.953 47.1333 318.82 50.2C317.686 53.2 317.12 56.9667 317.12 61.5C317.12 65.9667 317.686 69.7333 318.82 72.8C319.953 75.8667 321.62 78.1667 323.82 79.7C326.02 81.2333 328.72 82 331.92 82C335.12 82 337.786 81.2333 339.92 79.7C342.12 78.1667 343.786 75.8667 344.92 72.8C346.053 69.7333 346.62 65.9667 346.62 61.5C346.62 56.9667 346.053 53.2 344.92 50.2C343.786 47.1333 342.12 44.8333 339.92 43.3C337.786 41.7667 335.12 41 331.92 41Z" fill="#434343"/>
<path d="M354.372 87.728L351.342 81.87H397.903V95H340.737V82.476L383.258 35.612L386.288 41.47H341.444V28.34H396.691V40.864L354.372 87.728ZM425.758 28.34V95H408.386V28.34H425.758ZM440.54 95V28.34H492.454V41.773H457.912V55.307H485.384V67.932H457.912V81.567H493.767V95H440.54ZM531.238 96.01C525.313 96.01 520.027 94.697 515.381 92.071C510.802 89.445 507.234 85.5733 504.675 80.456C502.116 75.3387 500.837 69.1103 500.837 61.771C500.837 54.5663 502.184 48.4053 504.877 43.288C507.57 38.1707 511.408 34.2317 516.391 31.471C521.441 28.7103 527.366 27.33 534.167 27.33C541.708 27.33 547.802 28.7103 552.448 31.471C557.094 34.1643 560.696 38.4737 563.255 44.399L547.196 50.762C546.321 47.328 544.772 44.8367 542.55 43.288C540.328 41.7393 537.567 40.965 534.268 40.965C530.969 40.965 528.141 41.773 525.784 43.389C523.427 44.9377 521.643 47.2607 520.431 50.358C519.219 53.388 518.613 57.1587 518.613 61.67C518.613 66.3833 519.219 70.3223 520.431 73.487C521.71 76.6517 523.562 79.0083 525.986 80.557C528.477 82.0383 531.541 82.779 535.177 82.779C537.13 82.779 538.914 82.5433 540.53 82.072C542.146 81.6007 543.56 80.9273 544.772 80.052C545.984 79.1093 546.927 77.9647 547.6 76.618C548.273 75.204 548.61 73.5543 548.61 71.669V70.659H533.359V59.044H563.356V95H551.539L550.226 79.345L553.054 81.769C551.64 86.3477 549.081 89.8827 545.378 92.374C541.742 94.798 537.029 96.01 531.238 96.01ZM594.025 81.567H627.456V95H576.653V28.34H594.025V81.567ZM637.411 95V28.34H689.325V41.773H654.783V55.307H682.255V67.932H654.783V81.567H690.638V95H637.411ZM732.943 28.34C740.888 28.34 747.049 30.2253 751.426 33.996C755.87 37.6993 758.092 42.6483 758.092 48.843C758.092 55.6437 755.904 60.8283 751.527 64.397C747.15 67.9657 740.989 69.75 733.044 69.75L731.428 70.659H718.197V95H701.128V28.34H732.943ZM730.519 58.337C733.886 58.337 736.411 57.6637 738.094 56.317C739.777 54.9703 740.619 52.8157 740.619 49.853C740.619 46.9577 739.777 44.8367 738.094 43.49C736.411 42.1433 733.886 41.47 730.519 41.47H718.197V58.337H730.519ZM740.72 61.973L762.031 95H742.841L725.772 65.811L740.72 61.973Z" fill="#A5A5A5"/>
</svg>
